<svg aria-roledescription="er" viewBox="0 0 474.9627380371094 320" style="max-width: 474.963px; background-color: white;" xmlns:xlink="http://www.w3.org/1999/xlink" xmlns="http://www.w3.org/2000/svg" width="100%" id="mermaid-0"><style>#mermaid-0{font-family:"trebuchet ms",verdana,arial,sans-serif;font-size:16px;fill:#000000;}#mermaid-0 .error-icon{fill:#552222;}#mermaid-0 .error-text{fill:#552222;stroke:#552222;}#mermaid-0 .edge-thickness-normal{stroke-width:2px;}#mermaid-0 .edge-thickness-thick{stroke-width:3.5px;}#mermaid-0 .edge-pattern-solid{stroke-dasharray:0;}#mermaid-0 .edge-pattern-dashed{stroke-dasharray:3;}#mermaid-0 .edge-pattern-dotted{stroke-dasharray:2;}#mermaid-0 .marker{fill:#000000;stroke:#000000;}#mermaid-0 .marker.cross{stroke:#000000;}#mermaid-0 svg{font-family:"trebuchet ms",verdana,arial,sans-serif;font-size:16px;}#mermaid-0 .entityBox{fill:#cde498;stroke:#13540c;}#mermaid-0 .attributeBoxOdd{fill:#ffffff;stroke:#13540c;}#mermaid-0 .attributeBoxEven{fill:#f2f2f2;stroke:#13540c;}#mermaid-0 .relationshipLabelBox{fill:hsl(78.1578947368, 58.4615384615%, 84.5098039216%);opacity:0.7;background-color:hsl(78.1578947368, 58.4615384615%, 84.5098039216%);}#mermaid-0 .relationshipLabelBox rect{opacity:0.5;}#mermaid-0 .relationshipLine{stroke:#000000;}#mermaid-0 .entityTitleText{text-anchor:middle;font-size:18px;fill:#000000;}#mermaid-0 :root{--mermaid-font-family:"trebuchet ms",verdana,arial,sans-serif;}</style><g/><defs><marker orient="auto" markerHeight="18" markerWidth="18" refY="9" refX="0" id="ONLY_ONE_START"><path d="M9,0 L9,18 M15,0 L15,18" fill="none" stroke="gray"/></marker></defs><defs><marker orient="auto" markerHeight="18" markerWidth="18" refY="9" refX="18" id="ONLY_ONE_END"><path d="M3,0 L3,18 M9,0 L9,18" fill="none" stroke="gray"/></marker></defs><defs><marker orient="auto" markerHeight="18" markerWidth="30" refY="9" refX="0" id="ZERO_OR_ONE_START"><circle r="6" cy="9" cx="21" fill="white" stroke="gray"/><path d="M9,0 L9,18" fill="none" stroke="gray"/></marker></defs><defs><marker orient="auto" markerHeight="18" markerWidth="30" refY="9" refX="30" id="ZERO_OR_ONE_END"><circle r="6" cy="9" cx="9" fill="white" stroke="gray"/><path d="M21,0 L21,18" fill="none" stroke="gray"/></marker></defs><defs><marker orient="auto" markerHeight="36" markerWidth="45" refY="18" refX="18" id="ONE_OR_MORE_START"><path d="M0,18 Q 18,0 36,18 Q 18,36 0,18 M42,9 L42,27" fill="none" stroke="gray"/></marker></defs><defs><marker orient="auto" markerHeight="36" markerWidth="45" refY="18" refX="27" id="ONE_OR_MORE_END"><path d="M3,9 L3,27 M9,18 Q27,0 45,18 Q27,36 9,18" fill="none" stroke="gray"/></marker></defs><defs><marker orient="auto" markerHeight="36" markerWidth="57" refY="18" refX="18" id="ZERO_OR_MORE_START"><circle r="6" cy="18" cx="48" fill="white" stroke="gray"/><path d="M0,18 Q18,0 36,18 Q18,36 0,18" fill="none" stroke="gray"/></marker></defs><defs><marker orient="auto" markerHeight="36" markerWidth="57" refY="18" refX="39" id="ZERO_OR_MORE_END"><circle r="6" cy="18" cx="9" fill="white" stroke="gray"/><path d="M21,18 Q39,0 57,18 Q39,36 21,18" fill="none" stroke="gray"/></marker></defs><path style="stroke: gray; fill: none;" marker-start="url(#ZERO_OR_MORE_START)" marker-end="url(#ONLY_ONE_END)" d="M83.5751953125,88L83.5751953125,96.33333333333333C83.5751953125,104.66666666666667,83.5751953125,121.33333333333333,87.50601292256289,138C91.43683053262578,154.66666666666666,99.29846575275157,171.33333333333334,103.22928336281446,179.66666666666666L107.16010097287736,188" class="er relationshipLine"/><path style="stroke: gray; fill: none;" marker-start="url(#ZERO_OR_MORE_START)" marker-end="url(#ONLY_ONE_END)" d="M365.2549827212379,77L371.30657002282516,87.16666666666667C377.3581573244125,97.33333333333333,389.4613319275871,117.66666666666667,395.51291922917443,139.83333333333334C401.5645065307617,162,401.5645065307617,186,401.5645065307617,198L401.5645065307617,210" class="er relationshipLine"/><path style="stroke: gray; fill: none;" marker-start="url(#ZERO_OR_MORE_START)" marker-end="url(#ONLY_ONE_END)" d="M321.1164182935442,77L307.6574807394118,87.16666666666667C294.19854318527945,97.33333333333333,267.28066807701475,117.66666666666667,245.4264791348124,136.16666666666666C223.57229019261004,154.66666666666666,206.7817874164701,171.33333333333334,198.38653602840017,179.66666666666666L189.99128464033018,188" class="er relationshipLine"/><g transform="translate(64.57000732421875,188 )" id="entity-habits-69d88b4c-eb67-4789-893a-6fc389ff51d5"><rect height="112" width="138.0103759765625" y="0" x="0" class="er entityBox"/><text style="dominant-baseline: middle; text-anchor: middle; font-size: 12px;" transform="translate(69.00518798828125,12)" y="0" x="0" id="text-entity-habits-69d88b4c-eb67-4789-893a-6fc389ff51d5" class="er entityLabel">habits</text><rect height="22" width="54.04840087890625" y="24" x="0" class="er attributeBoxOdd"/><text style="dominant-baseline: middle; font-size: 10.2px;" transform="translate(5,35)" y="0" x="0" id="text-entity-habits-69d88b4c-eb67-4789-893a-6fc389ff51d5-attr-1-type" class="er entityLabel">String</text><rect height="22" width="62.28125" y="24" x="54.04840087890625" class="er attributeBoxOdd"/><text style="dominant-baseline: middle; font-size: 10.2px;" transform="translate(59.04840087890625,35)" y="0" x="0" id="text-entity-habits-69d88b4c-eb67-4789-893a-6fc389ff51d5-attr-1-name" class="er entityLabel">id</text><rect height="22" width="21.68072509765625" y="24" x="116.32965087890625" class="er attributeBoxOdd"/><text style="dominant-baseline: middle; font-size: 10.2px;" transform="translate(121.32965087890625,35)" y="0" x="0" id="text-entity-habits-69d88b4c-eb67-4789-893a-6fc389ff51d5-attr-1-key" class="er entityLabel">PK</text><rect height="22" width="54.04840087890625" y="46" x="0" class="er attributeBoxEven"/><text style="dominant-baseline: middle; font-size: 10.2px;" transform="translate(5,57)" y="0" x="0" id="text-entity-habits-69d88b4c-eb67-4789-893a-6fc389ff51d5-attr-2-type" class="er entityLabel">String</text><rect height="22" width="62.28125" y="46" x="54.04840087890625" class="er attributeBoxEven"/><text style="dominant-baseline: middle; font-size: 10.2px;" transform="translate(59.04840087890625,57)" y="0" x="0" id="text-entity-habits-69d88b4c-eb67-4789-893a-6fc389ff51d5-attr-2-name" class="er entityLabel">title</text><rect height="22" width="21.68072509765625" y="46" x="116.32965087890625" class="er attributeBoxEven"/><text style="dominant-baseline: middle; font-size: 10.2px;" transform="translate(121.32965087890625,57)" y="0" x="0" id="text-entity-habits-69d88b4c-eb67-4789-893a-6fc389ff51d5-attr-2-key" class="er entityLabel"/><rect height="22" width="54.04840087890625" y="68" x="0" class="er attributeBoxOdd"/><text style="dominant-baseline: middle; font-size: 10.2px;" transform="translate(5,79)" y="0" x="0" id="text-entity-habits-69d88b4c-eb67-4789-893a-6fc389ff51d5-attr-3-type" class="er entityLabel">DateTime</text><rect height="22" width="62.28125" y="68" x="54.04840087890625" class="er attributeBoxOdd"/><text style="dominant-baseline: middle; font-size: 10.2px;" transform="translate(59.04840087890625,79)" y="0" x="0" id="text-entity-habits-69d88b4c-eb67-4789-893a-6fc389ff51d5-attr-3-name" class="er entityLabel">created_at</text><rect height="22" width="21.68072509765625" y="68" x="116.32965087890625" class="er attributeBoxOdd"/><text style="dominant-baseline: middle; font-size: 10.2px;" transform="translate(121.32965087890625,79)" y="0" x="0" id="text-entity-habits-69d88b4c-eb67-4789-893a-6fc389ff51d5-attr-3-key" class="er entityLabel"/><rect height="22" width="54.04840087890625" y="90" x="0" class="er attributeBoxEven"/><text style="dominant-baseline: middle; font-size: 10.2px;" transform="translate(5,101)" y="0" x="0" id="text-entity-habits-69d88b4c-eb67-4789-893a-6fc389ff51d5-attr-4-type" class="er entityLabel">DateTime</text><rect height="22" width="62.28125" y="90" x="54.04840087890625" class="er attributeBoxEven"/><text style="dominant-baseline: middle; font-size: 10.2px;" transform="translate(59.04840087890625,101)" y="0" x="0" id="text-entity-habits-69d88b4c-eb67-4789-893a-6fc389ff51d5-attr-4-name" class="er entityLabel">updated_at</text><rect height="22" width="21.68072509765625" y="90" x="116.32965087890625" class="er attributeBoxEven"/><text style="dominant-baseline: middle; font-size: 10.2px;" transform="translate(121.32965087890625,101)" y="0" x="0" id="text-entity-habits-69d88b4c-eb67-4789-893a-6fc389ff51d5-attr-4-key" class="er entityLabel"/></g><g transform="translate(20,20 )" id="entity-habitsweekdays-fb76ae00-64cd-45c2-9c24-7d03ec5fdf5e"><rect height="68" width="127.150390625" y="0" x="0" class="er entityBox"/><text style="dominant-baseline: middle; text-anchor: middle; font-size: 12px;" transform="translate(63.5751953125,12)" y="0" x="0" id="text-entity-habitsweekdays-fb76ae00-64cd-45c2-9c24-7d03ec5fdf5e" class="er entityLabel">habits_week_days</text><rect height="22" width="41.068013509114586" y="24" x="0" class="er attributeBoxOdd"/><text style="dominant-baseline: middle; font-size: 10.2px;" transform="translate(5,35)" y="0" x="0" id="text-entity-habitsweekdays-fb76ae00-64cd-45c2-9c24-7d03ec5fdf5e-attr-1-type" class="er entityLabel">String</text><rect height="22" width="59.818013509114586" y="24" x="41.068013509114586" class="er attributeBoxOdd"/><text style="dominant-baseline: middle; font-size: 10.2px;" transform="translate(46.068013509114586,35)" y="0" x="0" id="text-entity-habitsweekdays-fb76ae00-64cd-45c2-9c24-7d03ec5fdf5e-attr-1-name" class="er entityLabel">id</text><rect height="22" width="26.264363606770832" y="24" x="100.88602701822917" class="er attributeBoxOdd"/><text style="dominant-baseline: middle; font-size: 10.2px;" transform="translate(105.88602701822917,35)" y="0" x="0" id="text-entity-habitsweekdays-fb76ae00-64cd-45c2-9c24-7d03ec5fdf5e-attr-1-key" class="er entityLabel">PK</text><rect height="22" width="41.068013509114586" y="46" x="0" class="er attributeBoxEven"/><text style="dominant-baseline: middle; font-size: 10.2px;" transform="translate(5,57)" y="0" x="0" id="text-entity-habitsweekdays-fb76ae00-64cd-45c2-9c24-7d03ec5fdf5e-attr-2-type" class="er entityLabel">Int</text><rect height="22" width="59.818013509114586" y="46" x="41.068013509114586" class="er attributeBoxEven"/><text style="dominant-baseline: middle; font-size: 10.2px;" transform="translate(46.068013509114586,57)" y="0" x="0" id="text-entity-habitsweekdays-fb76ae00-64cd-45c2-9c24-7d03ec5fdf5e-attr-2-name" class="er entityLabel">week_day</text><rect height="22" width="26.264363606770832" y="46" x="100.88602701822917" class="er attributeBoxEven"/><text style="dominant-baseline: middle; font-size: 10.2px;" transform="translate(105.88602701822917,57)" y="0" x="0" id="text-entity-habitsweekdays-fb76ae00-64cd-45c2-9c24-7d03ec5fdf5e-attr-2-key" class="er entityLabel"/></g><g transform="translate(348.16626739501953,210 )" id="entity-days-a9503c4f-c314-40ca-8a3e-fdffffd6a047"><rect height="68" width="106.79647827148438" y="0" x="0" class="er entityBox"/><text style="dominant-baseline: middle; text-anchor: middle; font-size: 12px;" transform="translate(53.39823913574219,12)" y="0" x="0" id="text-entity-days-a9503c4f-c314-40ca-8a3e-fdffffd6a047" class="er entityLabel">days</text><rect height="22" width="54.04840087890625" y="24" x="0" class="er attributeBoxOdd"/><text style="dominant-baseline: middle; font-size: 10.2px;" transform="translate(5,35)" y="0" x="0" id="text-entity-days-a9503c4f-c314-40ca-8a3e-fdffffd6a047-attr-1-type" class="er entityLabel">String</text><rect height="22" width="31.067352294921875" y="24" x="54.04840087890625" class="er attributeBoxOdd"/><text style="dominant-baseline: middle; font-size: 10.2px;" transform="translate(59.04840087890625,35)" y="0" x="0" id="text-entity-days-a9503c4f-c314-40ca-8a3e-fdffffd6a047-attr-1-name" class="er entityLabel">id</text><rect height="22" width="21.68072509765625" y="24" x="85.11575317382812" class="er attributeBoxOdd"/><text style="dominant-baseline: middle; font-size: 10.2px;" transform="translate(90.11575317382812,35)" y="0" x="0" id="text-entity-days-a9503c4f-c314-40ca-8a3e-fdffffd6a047-attr-1-key" class="er entityLabel">PK</text><rect height="22" width="54.04840087890625" y="46" x="0" class="er attributeBoxEven"/><text style="dominant-baseline: middle; font-size: 10.2px;" transform="translate(5,57)" y="0" x="0" id="text-entity-days-a9503c4f-c314-40ca-8a3e-fdffffd6a047-attr-2-type" class="er entityLabel">DateTime</text><rect height="22" width="31.067352294921875" y="46" x="54.04840087890625" class="er attributeBoxEven"/><text style="dominant-baseline: middle; font-size: 10.2px;" transform="translate(59.04840087890625,57)" y="0" x="0" id="text-entity-days-a9503c4f-c314-40ca-8a3e-fdffffd6a047-attr-2-name" class="er entityLabel">date</text><rect height="22" width="21.68072509765625" y="46" x="85.11575317382812" class="er attributeBoxEven"/><text style="dominant-baseline: middle; font-size: 10.2px;" transform="translate(90.11575317382812,57)" y="0" x="0" id="text-entity-days-a9503c4f-c314-40ca-8a3e-fdffffd6a047-attr-2-key" class="er entityLabel"/></g><g transform="translate(301.5645065307617,31 )" id="entity-dayshabits-cbe45a9c-6888-4b51-887a-b858869c9571"><rect height="46" width="100" y="0" x="0" class="er entityBox"/><text style="dominant-baseline: middle; text-anchor: middle; font-size: 12px;" transform="translate(50,12)" y="0" x="0" id="text-entity-dayshabits-cbe45a9c-6888-4b51-887a-b858869c9571" class="er entityLabel">days_habits</text><rect height="22" width="44.231424967447914" y="24" x="0" class="er attributeBoxOdd"/><text style="dominant-baseline: middle; font-size: 10.2px;" transform="translate(5,35)" y="0" x="0" id="text-entity-dayshabits-cbe45a9c-6888-4b51-887a-b858869c9571-attr-1-type" class="er entityLabel">String</text><rect height="22" width="26.340799967447918" y="24" x="44.231424967447914" class="er attributeBoxOdd"/><text style="dominant-baseline: middle; font-size: 10.2px;" transform="translate(49.231424967447914,35)" y="0" x="0" id="text-entity-dayshabits-cbe45a9c-6888-4b51-887a-b858869c9571-attr-1-name" class="er entityLabel">id</text><rect height="22" width="29.427775065104168" y="24" x="70.57222493489583" class="er attributeBoxOdd"/><text style="dominant-baseline: middle; font-size: 10.2px;" transform="translate(75.57222493489583,35)" y="0" x="0" id="text-entity-dayshabits-cbe45a9c-6888-4b51-887a-b858869c9571-attr-1-key" class="er entityLabel">PK</text></g><rect height="14" width="27.96875" y="132.72332763671875" x="73.94202423095703" class="er relationshipLabelBox"/><text style="text-anchor: middle; dominant-baseline: middle; font-size: 12px;" y="139.72332763671875" x="87.92639923095703" id="rel1" class="er relationshipLabel">habit</text><rect height="14" width="18.990234375" y="133.16226196289062" x="386.1068420410156" class="er relationshipLabelBox"/><text style="text-anchor: middle; dominant-baseline: middle; font-size: 12px;" y="140.16226196289062" x="395.6019592285156" id="rel2" class="er relationshipLabel">day</text><rect height="14" width="27.96875" y="122.70606994628906" x="239.18360900878906" class="er relationshipLabelBox"/><text style="text-anchor: middle; dominant-baseline: middle; font-size: 12px;" y="129.70606994628906" x="253.16798400878906" id="rel3" class="er relationshipLabel">habit</text></svg>